<?xml version="1.0" encoding="utf-8"?>
<svg version="1.1" id="Layer_1" xmlns="http://www.w3.org/2000/svg" xmlns:xlink="http://www.w3.org/1999/xlink" x="0px"
	y="0px" viewBox="0 0 1739.812 1736.904" enable-background="new 0 0 1739.812 1736.904" xml:space="preserve">
	<style>
		path,
		polygon {
			fill: "#32b635"
		}
	</style>
	<g>
		<style>

		</style>
		<polygon points="1306.574,757.946 1306.574,757.946 1306.574,757.945 	" />
		<path d="M732.517,698.408c55.422,24.395,51.943,7.215,85.887,24.874c2.209,1.149,2.556,4.165,0.668,5.786
		c-23.331,20.032-33.763,28.358-59.203,32.912c-16.48,2.95-33.309,2.164-49.944,2.94c3.401,4.054,7.152,8.104,11.299,12.112
		c-9.376,1.674-26.789-5.693-31.813-4.353c-8.626,2.875,0.732,37.451,26.328,80.752c40.517,11.408,92.799,22.147,137.502,40.194
		c-0.623-91.545-2.535-183.09-3.74-274.593c-55.259,36.525-51.8,20.868-74.092,21.982c-10.43,4.197-20.112,10.513-31.373,12.342
		c-10.804,2.077-21.359-2.161-31.955-3.241c-3.886,1.004-7.698,2.305-11.506,3.616c5.624,15.05,12.68,29.891,20.648,41.259
		c-4.773,2.545-23.446-11.228-33.052-16.055c-0.162-0.322-0.313-0.657-0.435-1.023c-0.035,0.247-0.055,0.506-0.066,0.773
		c-0.324-0.157-0.638-0.305-0.938-0.438c-5.445-2.622-10.034,16.138-1.855,42.079c1.158-0.555,2.317-1.105,3.476-1.645
		C707.921,709.893,720.981,693.327,732.517,698.408z" />
		<path d="M737.26,722.952c0-14.675-22.188-14.66-22.188,0C715.072,737.627,737.26,737.612,737.26,722.952z" />
		<path d="M848.879,573.906c-0.415-15.043,1.08-30.252-1.496-45.128c-11.012-10.14-23.811-20.736-25.431-36.735
		c-8.657-43.875,48.831-77.446,82.818-41.929c18.201,17.91,18.7,51.361-1.246,68.191c-13.673,15.952-12.611-2.411-12.425,55.641
		c51.112-10.098,101.684-29.296,141.743-63.288c0.486-0.456,0.998-0.871,1.533-1.251c-0.389-5.262-1.042-8.762-1.723-9.646
		c-0.034-0.044-0.084-0.069-0.122-0.107c0.039-0.074,0.084-0.155,0.122-0.228c-0.068,0.048-0.138,0.105-0.207,0.154
		c-4.043-3.406-29.473,18.026-41.652,23.622c23.441-34.491,22.771-115.529,15.069-113.855c-0.023,0.005-0.047,0.012-0.07,0.017
		c0.02-0.115,0.052-0.241,0.07-0.352c0,0-0.13,0.151-0.365,0.426c-7.784,1.94-21.901,13.092-32.452,21.006
		c8.372-11.051,1.674-94.768-6.028-108.162c-0.001,0.001-0.002,0.001-0.003,0.002c0-0.114,0.003-0.223,0.003-0.337
		c-0.106,0.179-0.21,0.36-0.316,0.539c-4.919,3.213-9.906,4.98-18.102,12.521c4.353-40.184-14.399-82.043-20.427-85.726
		c-3.684,3.684-8.707,8.707-13.06,14.734c-0.994-30.825-27.904-170.548-44.689-194.504c-0.059-0.434-0.119-0.793-0.183-1.059
		c-0.036,0.151-0.074,0.372-0.112,0.647c-0.074-0.1-0.149-0.216-0.223-0.312c-16.743,21.766-44.537,164.085-45.207,195.228
		c-4.142-5.736-8.877-10.547-12.501-14.175c-0.075-0.299-0.148-0.593-0.224-0.894c-0.054,0.163-0.1,0.347-0.15,0.52
		c-0.06-0.06-0.126-0.126-0.185-0.185c-6.363,3.683-24.78,45.542-20.427,85.726c-8.07-7.425-13.028-9.252-17.875-12.373
		c-0.07-0.118-0.138-0.232-0.208-0.352c0.003,0.072,0.011,0.153,0.015,0.226c-0.116-0.076-0.233-0.148-0.349-0.226
		c-7.702,13.395-14.399,97.112-6.028,108.162c-10.035-7.769-24.135-18.665-32.022-20.895c-0.042-0.066-0.083-0.135-0.125-0.201
		c0.004,0.055,0.013,0.116,0.018,0.171c-0.235-0.064-0.465-0.123-0.688-0.171c-7.702-1.674-8.372,79.699,15.069,113.855
		c-12.725-6.028-38.51-27.794-41.859-23.441c-0.686,0.892-1.344,4.445-1.732,9.78c7.171,4.183,13.437,11.259,20.241,15.537
		C762.612,549.929,805.33,565.512,848.879,573.906z" />
		<path d="M995.775,653.317c-11.427-1.455-21.068-8.145-31.498-12.466c-24.327,0.098-20.814,13.226-74.175-22.024
		c-0.707,91.544-3.075,183.09-3.449,274.634c45.982-18.069,97.656-28.903,137.464-40.149c25.562-43.555,34.904-78.077,26.283-80.631
		c-0.124-0.041-0.262-0.073-0.402-0.103c0.022-0.078,0.045-0.153,0.067-0.232c-0.065,0.065-0.133,0.136-0.198,0.202
		c-5.64-1.048-22.533,6.107-31.28,4.487c4.116-3.979,7.842-7.998,11.223-12.021c-21.443-0.937-43.084-0.316-63.996-5.939
		c-16.145-4.343-31.231-17.833-43.591-28.573c-14.499-12.597,23.696-16.187,50.614-19.506c20.433-2.519,29.607-15.132,42.239-12.638
		c14.421,2.847,25.79,16.068,39.208,21.739c0.211,0.1,0.417,0.201,0.627,0.301c8.209-25.978,3.617-44.773-1.833-42.149
		c-0.132,0.064-0.275,0.137-0.412,0.206c0.023-0.178,0.065-0.371,0.078-0.54c-0.041,0.064-0.261,0.349-0.632,0.819
		c-9.453,4.879-28.673,18.847-33.525,16.259c7.932-11.422,14.96-26.251,20.571-41.269c-3.718-1.254-7.438-2.489-11.221-3.438
		C1017.217,651.322,1006.621,655.145,995.775,653.317z" />
		<path
			d="M852.745,1354.341c-62.356-45.655-118.278-76.005-82.694-150.719c12.425-24.933,34.947-42.469,57.512-57.719
		c-30.501-17.66-64.535-39.519-72.762-76.377c-6.732-38.272,4.696-79.203,29.337-109.122c9.308-11.553,20.818-20.986,32.121-30.501
		c-39.872-10.633-80.925-18.099-115.977-29.236c6.586,14.923,16.14,30.913,28.645,44.471c-6.697,2.679-17.748-1.004-23.441,5.023
		c-5.693,6.028,25.115,56.928,31.813,79.699c-3.05,0.61-5.564,0.064-7.806-0.536c-4.203-9.488-7.957-16.335-10.612-16.208
		c-7.032,0.335-11.051,9.041-16.408,12.055c-3.635-39.001-27.486-75.041-36.8-76.616c-0.012-0.022-0.024-0.047-0.036-0.069
		c0,0,0,0.025-0.001,0.062c-0.11-0.018-0.229-0.055-0.334-0.063c-9.041-0.67-4.688,15.739-11.385,22.101
		c-13.06-44.202-30.808-72.331-37.84-68.313c-4.018,2.344-9.041,17.748-15.404,22.436c-2.009-59.272-40.184-86.061-42.863-78.024
		c-2.679,8.037-4.688,29.468-9.042,31.143c-8.372-36.501-43.868-86.396-50.565-82.043s-4.019,22.436-12.055,32.482
		c-3.604-32.438-45.996-68.397-52.211-70.244c-0.01-0.025-0.019-0.053-0.029-0.078c-0.002,0.022-0.004,0.045-0.006,0.067
		c-0.123-0.035-0.236-0.061-0.329-0.067c-4.688-0.335-5.693,28.464-9.041,39.849c-8.372-34.491-60.276-80.034-63.29-74.341
		c-3.014,5.693-4.354,21.431-5.358,32.482c-1.965-11.136-56.458-53.017-70.754-57.356c-0.08-0.081-0.156-0.16-0.238-0.241
		c0.021,0.063,0.041,0.124,0.062,0.187c-0.256-0.074-0.503-0.139-0.732-0.187c-0.67,5.023-2.679,9.041-2.679,18.753
		c-23.106-25.45-59.941-37.84-65.969-35.831c0.335,4.688,0.67,10.716,2.009,16.409c-19.871-16.89-123.25-79.298-148.2-82.291
		c-0.05-0.029-0.097-0.057-0.147-0.087c0.017,0.026,0.034,0.051,0.051,0.077c-0.243-0.028-0.493-0.061-0.721-0.077
		c4.019,22.771,78.359,121.222,97.447,139.64c-5.572-0.619-11.131-0.379-15.645-0.075c-0.234-0.139-0.386-0.232-0.429-0.26
		c0.055,0.092,0.118,0.185,0.175,0.277c-0.281,0.019-0.573,0.038-0.845,0.057c-1.339,6.028,14.734,41.524,42.528,61.616
		c-9.376,1.005-13.395,3.349-18.418,4.353c4.018,12.39,53.244,64.295,64.964,64.964c-11.051,2.009-26.455,5.023-31.813,8.706
		c-5.358,3.684,45.542,50.565,80.368,55.253c-10.716,4.688-39.514,8.707-38.51,13.06c0.669,4.353,42.193,44.537,75.345,44.872
		c-9.042,9.041-27.459,8.037-30.808,15.069c-3.684,7.367,49.895,37.17,86.731,41.859c-1.339,4.688-22.436,9.042-30.138,12.39
		c-7.702,3.349,22.771,38.51,82.043,34.491c-4.019,6.697-19.088,13.73-20.762,17.748c-3.349,7.367,26.79,22.101,71.997,30.473
		c-5.693,7.367-22.436,4.688-21.097,13.73c1.339,9.042,40.184,29.468,80.033,29.134c-2.344,5.693-10.381,10.716-10.046,17.748
		c0.29,6.079,37.608,13.909,59.403,21.544c-0.513,2.322,2.061,5.231,3.975,8.418c-1.356,0.896-2.611,1.669-3.457,2.8
		c-24.229-13.432-42.956-18.334-44.517-13.34v0c-1.005,3.014,3.683,12.725,2.679,18.083c-28.129-28.129-58.937-23.776-56.593-18.753
		c0.048,0.103,0.103,0.213,0.156,0.321c-0.053,0.006-0.103,0.007-0.156,0.014c0.078,0.039,0.145,0.076,0.219,0.114
		c2.618,5.222,10.793,16.046,9.493,18.973c-20.762-14.064-60.946-22.436-62.286-17.078c-1.339,5.358,8.372,12.725,9.041,21.432
		c-17.078-14.399-55.588-12.39-57.932-10.381c-2.344,1.674,10.381,16.408,13.729,23.441c-19.757-13.06-65.969-11.72-64.964-7.367
		c1.339,4.353,7.702,12.39,12.39,18.418c-6.028-4.688-53.579,0-61.281,4.353c0,0,0,0,0,0h0c0,0,0,0,0,0
		c2.009,2.679,3.014,5.693,7.367,10.381c-22.771-2.009-46.546,8.707-48.556,12.39c0.054,0.063,0.117,0.129,0.172,0.192
		c-0.17,0.047-0.344,0.092-0.507,0.143c0,0,0.317,0.101,0.883,0.278c1.99,2.191,4.762,4.611,7.823,6.754
		c-17.326,0.999-97.628,17.911-110.309,27.646c-0.178,0.05-0.351,0.097-0.532,0.148c0.162,0.039,0.33,0.077,0.498,0.114
		c12.892,9.376,93.672,23.328,111.348,23.661c-3.349,2.344-6.363,5.023-8.372,7.367c2.344,3.349,26.454,13.395,49.225,10.716
		c-4.353,5.023-5.023,7.702-7.032,10.716c0.092,0.052,0.195,0.104,0.299,0.156c-0.099,0.059-0.2,0.121-0.299,0.179
		c0.195-0.008,0.398-0.025,0.598-0.038c9.281,4.19,55.128,6.956,61.018,2.048c-4.688,6.028-10.716,14.399-11.72,18.753
		c-0.025,0.109-0.013,0.215,0.021,0.318c-0.006,0.005-0.014,0.011-0.021,0.016c0.008-0.001,0.016-0.003,0.024-0.004
		c1.374,3.995,45.69,3.329,64.606-10.042c-3.349,7.367-15.404,22.101-13.06,24.11c0.04,0.03,0.114,0.059,0.17,0.089
		c-0.057,0.083-0.113,0.162-0.17,0.246c0.105-0.055,0.213-0.114,0.318-0.169c4.514,1.869,41.331,2.091,57.279-12.555
		c-0.335,8.707-10.046,16.408-8.372,21.766c1.339,5.358,41.524-4.353,61.616-19.088c1.674,2.679-6.697,14.399-9.041,19.757
		c0,0,0,0,0,0c-2.344,5.023,28.799,8.372,55.923-20.762c1.004,5.023-3.014,15.404-2.009,18.083
		c1.674,5.358,23.106-1.34,49.561-18.083c0.661,6.276-8.771,12.551-4.204,16.256c-0.075,0.077-0.13,0.133-0.15,0.153
		c0.075-0.025,0.155-0.059,0.231-0.086c0.036,0.028,0.066,0.058,0.104,0.086c5.023,3.683,33.487-4.018,52.574-22.436
		c0.971,2.912,0.367,6.875,1.23,10.113c-0.076,0.09-0.149,0.177-0.226,0.268c0.088-0.036,0.177-0.078,0.265-0.116
		c0.332,1.171,0.86,2.245,1.744,3.13c0.987,0.987,4.194,0.105,8.538-1.723c1.218,1.749,7.309,4.898,9.21,7.75
		c-27.098-1.983-41.138,13.634-37.964,15.655c-0.241,0.12-0.396,0.269-0.546,0.419c0.478,0,0.946-0.001,1.407-0.002
		c3.846,1.604,12.367,3.482,12.993,5.36c-16.863,1.984-40.89,15.387-39.882,18.949c-0.212,0.158-0.427,0.306-0.637,0.474
		c0.276-0.042,0.556-0.08,0.833-0.122c2.241,3.113,10.309,2.892,14.236,6.819c-14.982,0.326-33.444,17.753-34.751,20.556
		c-0.265,0.18-0.518,0.36-0.745,0.541c0.068-0.01,0.309-0.04,0.704-0.085c0.708,1.926,12.899,3.852,17.714,5.778
		c-16.077,2.297-38.566,22.904-37.265,25.312c-0.19,0.158-0.398,0.314-0.575,0.473c0.015-0.004,0.367-0.06,0.985-0.158
		c2.875,1.592,9.575,2.873,14.419,3.841c-4.767,0.298-23.04,19.14-28.431,27.305c-0.725,0.807-1.387,1.741-2.042,2.833
		c0.68,0.057,1.347,0.084,2.008,0.094c1.773,0.612,3.541,1.311,7.034,1.58c-9.795,7.217-16.41,18.594-18.634,24.676
		c-0.672,1.179-1.167,2.519-1.458,4.122c0.449-0.082,0.88-0.165,1.298-0.248c1.978,0.243,4.659,0.215,7.074-0.086
		c-8.247,7.93-39.312,49.192-44.276,62.349c-0.727,0.826-1.271,1.484-1.601,1.945c0.309-0.161,0.715-0.416,1.2-0.747
		c-0.074,0.258-0.152,0.521-0.195,0.747c10.716-0.67,59.271-30.138,68.648-37.84c-0.67,3.014-1.005,5.693-1.005,7.702
		c2.679,1.005,19.422-4.688,30.138-16.408c0,2.646,0.248,4.421,0.517,5.936c0.021,0.729,0.07,1.528,0.153,2.435
		c0.088-0.044,0.174-0.087,0.26-0.131c0.025,0.155,0.052,0.309,0.075,0.466c5.693-1.339,31.813-21.097,32.817-26.455
		c0.31,4.959,0.908,11.344,2.057,14.393c-0.017,0.115-0.03,0.224-0.048,0.341c0.04-0.049,0.079-0.105,0.118-0.156
		c0.071,0.175,0.142,0.342,0.217,0.491c1.34,2.679,25.45-18.418,29.134-34.157c1.339,5.358,2.009,18.418,4.019,18.418
		c2.009-0.335,22.436-17.413,24.11-32.482c3.684,4.353,2.009,12.725,5.358,14.734c3.349,2.009,19.422-21.097,23.441-37.84
		c2.009,0.67,3.014,10.716,4.018,14.399c1.34,3.684,18.752-8.372,19.757-35.831c2.679,2.344,5.358,9.376,7.032,10.381
		c3.349,1.674,11.386-11.385,18.418-32.148c3.021,2.719,1.696,9.233,4.354,10.24c0,0.16-0.001,0.315-0.001,0.476
		c0.073-0.134,0.141-0.267,0.213-0.401c0.237,0.059,0.493,0.091,0.792,0.066c4.019,0,15.404-17.078,17.078-35.161
		c1.602,0.6,2.846,2.275,4.302,3.599c0.016,0.47,0.033,0.942,0.052,1.424c0.152-0.318,0.296-0.664,0.445-0.997
		c0.848,0.689,1.781,1.22,2.904,1.332c3.349,0,10.046-22.436,14.734-30.138c2.353,1.764,1.867,4.302,4.207,4.895
		c0.049,0.156,0.096,0.306,0.146,0.464c0.029-0.145,0.055-0.279,0.084-0.422c0.273,0.051,0.57,0.086,0.921,0.086
		c7.367-0.335,10.046-35.161,11.051-39.514c2.856,2.856,3.501,5.303,4.894,6.261c0.144,0.241,0.297,0.494,0.464,0.772
		c0.113-0.145,0.221-0.284,0.328-0.419c0.208,0.05,0.427,0.084,0.676,0.084c3.572,0.198,7.028-21.126,13.431-44.805
		c-31.298,31.747-25.765,42.707-32.989,68.996C803.202,1423.178,832.357,1379.941,852.745,1354.341z M687.076,1419.331
		c1.84-0.871,3.597-1.667,5.229-2.353c0.428,0.28,0.814,0.601,1.126,0.992C691.232,1418.396,689.113,1418.853,687.076,1419.331z" />
		<path
			d="M1006.573,711.858c-14.675,0-14.66,22.188,0,22.188C1021.248,734.046,1021.232,711.858,1006.573,711.858z" />
		<path d="M880.358,1313.229c-0.084,4.673-0.171,9.347-0.271,14.02c60.983-54.221,74.788-63.387,63.038-96.989
		c-10.888-26.72-36.984-41.763-60.462-55.974c-1.256,44.043-1.46,88.086-2.188,132.13c2.538-6.094,5.326-12.234,8.319-18.386
		C885.937,1297.037,883.112,1305.544,880.358,1313.229z" />
		<path d="M854.407,956.083c-38.854,19.364-66.072,64.16-55.933,107.834c9.931,25.307,36.069,38.189,58.301,50.988
		C856.235,1061.964,855.072,1009.023,854.407,956.083z" />
		<path d="M859.421,1315.185c-1.068-46.942-0.242-93.97-2.813-140.858c-21.525,13.339-45.169,26.761-57.22,50.156
		c-6.857,13.838-10.389,32.496,0.623,45.253c17.536,21.276,38.48,39.643,59.714,57.138c-0.073-2.41-0.134-4.82-0.195-7.231
		c-3.896-7.568-7.508-15.644-10.863-24.034C852.59,1302.493,856.208,1309.057,859.421,1315.185z" />
		<path d="M860.017,1375.534c-0.496,0.471-0.98,0.935-1.462,1.398c-16.939,162.244,12.364,152.71,4.654,267.075h15.739
		c4.762-88.582-9.785-108.484-9.959-179.984c-2.561-0.009-5.122-0.019-7.683-0.019C860.89,1434.5,861.139,1404.996,860.017,1375.534
		z" />
		<path d="M942.17,1060.883c7.937-43.092-18.99-85.561-56.639-105.092c-1.122,53.107-1.579,106.172-2.576,159.279
		C905.685,1101.482,934.025,1088.268,942.17,1060.883z" />
		<path d="M1671.245,615.627c-0.073,0.005-0.157,0.018-0.232,0.025c0.078-0.121,0.154-0.237,0.232-0.36
		c-0.185,0.097-0.417,0.234-0.691,0.41c-24.42,2.808-128.423,65.386-148.325,82.303c1.339-6.028,1.674-12.055,2.009-16.409
		c-0.067-0.019-0.158-0.026-0.232-0.041c0.078-0.098,0.153-0.196,0.232-0.294c-0.151,0.076-0.307,0.173-0.459,0.253
		c-7.197-1.048-42.911,11.022-65.51,35.913c0-9.392-1.565-13.462-2.576-18.263c0.077-0.274,0.153-0.544,0.232-0.825
		c-0.11,0.11-0.222,0.231-0.333,0.345c-0.001-0.003-0.001-0.006-0.002-0.01c-12.725,3.014-69.318,46.212-71.662,57.597
		c-0.985-10.835-1.972-26.17-5.166-32.131c0.047-0.229,0.105-0.458,0.143-0.686c-0.101,0.127-0.202,0.264-0.303,0.393
		c-0.01-0.018-0.021-0.039-0.031-0.058c-3.349-5.693-54.583,39.514-62.955,74.006c-3.349-11.385-4.353-40.184-9.042-39.849h0
		c0,0,0,0,0,0c-4.689,0.336-48.891,37.171-52.574,70.322c-8.037-10.046-5.023-28.129-12.055-32.482
		c-7.032-4.353-42.194,45.542-50.565,82.043c-4.277-1.645-6.292-22.352-8.902-30.699c0.063-0.148,0.122-0.296,0.196-0.444
		c-0.085,0.068-0.173,0.165-0.259,0.242c-0.026-0.079-0.051-0.165-0.076-0.242c-2.679-8.037-40.854,18.753-42.863,78.024
		c-6.183-4.881-11.101-19.247-15.061-22.205c-0.003-0.078-0.005-0.153-0.008-0.232c-0.025,0.052-0.053,0.12-0.078,0.174
		c-0.086-0.061-0.172-0.124-0.257-0.173c-7.032-4.018-24.78,24.11-37.84,68.648c-6.698-6.362-2.344-22.771-11.386-22.101
		c-2.306,0.171-5.638,2.683-9.376,6.972c0-0.093,0-0.181,0-0.275c-0.109,0.209-0.217,0.439-0.326,0.658
		c-10.874,12.698-24.999,40.184-27.469,69.329c-5.358-2.679-9.376-11.721-16.408-12.055c-1.483-0.071-3.31,2.039-5.365,5.564
		c0.003-0.069,0.007-0.138,0.007-0.206c-0.67,1.005-1.004,1.674-1.674,2.679c-0.277,0.831-0.542,1.541-0.797,2.176
		c-0.831,1.691-1.689,3.541-2.567,5.511c-2.38,0.651-5.055,1.344-8.356,0.684c6.697-22.771,37.84-73.671,31.812-79.699
		c-1.453-1.453-3.182-2.353-5.058-2.927c0.01-0.028,0.025-0.059,0.035-0.087c-0.026,0.023-0.053,0.049-0.079,0.072
		c-5.899-1.787-13.269-0.306-18.339-2.081c12.525-13.58,22.089-29.599,28.676-44.543c-37.722,12.408-77.644,18.779-115.883,29.144
		c25.141,20.112,47.954,45.253,56.971,76.834c19.955,70.521-5.719,103.842-68.191,139.166
		c27.551,18.699,55.309,42.094,64.036,75.671c18.444,62.968-31.934,91.997-89.841,132.933
		c17.785,21.234,34.615,45.211,37.814,73.469c1.953,8.187-1.33,16.04-4.405,23.478c-8.258-27.084-0.481-35.342-33.755-69.261
		c2.882,9.856,5.686,19.569,8.225,27.51c0.673,2.96,1.391,6.097,2.162,9.438c1.34,3.683,3.014,5.358,5.358,8.707
		c0.018-0.038,0.031-0.076,0.049-0.115c0.339,0.308,0.659,0.466,0.956,0.45c2.679-0.335,2.679-3.014,6.362-6.697
		c1.005,4.353,3.684,39.179,11.051,39.514c3.684,0,2.679-3.014,5.358-5.023c2.413,4.136,5.356,12.081,8.103,18.778
		c1.02,3.362,2.122,6.219,3.283,8.346c0.011-0.295,0.02-0.61,0.028-0.933c1.279,2.475,2.421,4.037,3.321,3.947
		c3.349,0,5.358-4.019,7.702-5.358c1.061,11.46,6.022,22.376,10.537,28.925c0.376,0.833,0.766,1.68,1.184,2.553
		c0.011-0.299,0.022-0.588,0.033-0.876c2.142,2.786,4.084,4.457,5.325,4.56c4.353,0,2.344-7.367,5.358-10.381
		c6.028,20.427,14.065,33.487,17.413,31.478c1.675-1.005,4.018-8.037,7.032-10.381c1.004,27.124,18.753,39.514,19.757,35.831
		c1.005-3.683,2.009-13.729,4.018-14.399c4.019,16.743,20.427,39.849,23.441,37.84c3.014-2.009,1.674-10.046,5.358-14.734
		c1.674,15.404,22.101,32.482,24.11,32.482c2.009,0,2.344-13.395,4.018-18.418c3.684,15.739,27.794,36.835,29.134,34.156
		c1.34-2.679,2.009-10.046,2.344-15.069c0.969,4.846,25.002,23.715,32.105,26.24c0.129,0.072,0.245,0.142,0.378,0.215
		c0-0.033-0.002-0.064-0.002-0.097c0.113,0.033,0.235,0.075,0.337,0.097c0.335-2.344,1.005-4.354,1.005-8.707
		c10.381,11.72,27.459,17.413,30.138,16.409c0,0,0,0,0,0h0c0,0,0,0,0,0c-0.335-2.344-0.335-5.023-1.004-7.701
		c9.376,7.702,57.932,37.17,68.648,37.84c0,0,0,0,0,0c0,0,0,0,0,0c0,0,0,0,0,0c-2.01-10.717-36.166-55.922-44.872-64.294
		c3.014,0.335,5.693,0,7.702,0c0.67-3.014-6.698-19.088-19.422-28.464c3.332-0.256,5.094-0.905,6.789-1.495
		c0.41-0.051,0.824-0.108,1.248-0.179c-0.041-0.068-0.081-0.132-0.121-0.198c0.15-0.047,0.301-0.093,0.456-0.137
		c-2.009-5.693-24.445-29.468-29.803-29.803c4.695-0.939,11.436-2.171,14.211-3.695c0.064,0.005,0.124,0.006,0.188,0.011
		c-0.032-0.021-0.07-0.041-0.103-0.061c0.158-0.09,0.308-0.181,0.438-0.273c2.344-1.674-21.097-23.441-37.17-25.45
		c5.023-2.009,18.083-4.018,17.748-6.028c-0.335-2.009-19.422-20.762-34.826-20.762c4.353-4.353,12.725-3.683,14.399-7.032
		c1.674-3.349-22.771-17.078-39.849-19.088c0.314-2.198,8.875-3.808,12.977-5.381c0.14,0.009,0.277,0.011,0.418,0.023
		c-0.062-0.04-0.13-0.077-0.194-0.116c0.182-0.073,0.368-0.146,0.529-0.219c3.349-1.34-10.716-17.748-37.84-15.739
		c1.511-2.721,7.375-5.439,8.997-7.421c3.942,1.602,6.82,2.32,7.747,1.394c0.884-0.884,1.412-1.957,1.744-3.128
		c0.09,0.038,0.175,0.077,0.265,0.114c-0.077-0.097-0.146-0.183-0.223-0.278c0.859-3.236,0.258-7.194,1.227-10.103
		c19.087,18.418,47.551,26.12,52.574,22.436c0.037-0.027,0.066-0.056,0.101-0.083c0.076,0.025,0.158,0.06,0.234,0.083
		c-0.052-0.052-0.099-0.101-0.15-0.152c4.568-3.705-4.864-9.979-4.203-16.256c26.454,16.743,47.886,23.441,49.56,18.083
		c1.005-2.679-3.014-13.06-2.009-18.083c27.124,29.134,58.267,25.785,55.923,20.762c-2.344-5.358-10.716-17.078-9.042-19.757
		c20.092,14.734,60.276,24.445,61.616,19.088c0,0,0,0,0,0s0,0,0,0c1.674-5.358-8.037-13.06-8.372-21.766
		c15.948,14.646,52.765,14.424,57.279,12.555c0.106,0.056,0.214,0.115,0.318,0.169c-0.059-0.083-0.117-0.161-0.176-0.243
		c0.058-0.03,0.134-0.06,0.176-0.091c2.344-2.009-9.711-16.743-13.06-24.11c18.918,13.373,63.244,14.037,64.606,10.04
		c0.007,0.002,0.016,0.004,0.023,0.006c-0.007-0.006-0.013-0.011-0.02-0.016c0.033-0.103,0.046-0.209,0.02-0.318
		c-1.004-4.353-7.032-12.725-11.72-18.753c6.028,5.023,53.914,2.009,61.616-2.344c-0.088-0.132-0.17-0.263-0.254-0.393
		c0.199,0.017,0.387,0.043,0.589,0.058c-0.297-0.175-0.583-0.35-0.878-0.525c-1.626-2.689-2.553-5.315-6.489-9.856
		c22.771,2.679,46.882-7.367,49.226-10.716c-2.009-2.344-5.023-5.023-8.372-7.367c17.677-0.334,98.461-14.286,111.35-23.662
		c0.167-0.038,0.327-0.074,0.497-0.113c-0.144-0.04-0.316-0.081-0.498-0.122c-12.571-9.731-93.003-26.672-110.344-27.672
		c3.112-2.178,5.923-4.642,7.919-6.861c0.449-0.102,0.723-0.161,0.788-0.171c-0.164-0.051-0.344-0.089-0.513-0.136
		c0.058-0.066,0.122-0.134,0.178-0.199c-2.01-3.684-25.785-14.399-48.556-12.39c4.353-4.688,5.358-7.702,7.367-10.381c0,0,0,0,0,0
		s0,0,0,0c-7.702-4.353-55.253-9.042-61.281-4.353c4.688-6.028,11.05-14.065,12.39-18.418c1.005-4.353-45.207-5.693-64.964,7.367
		c3.349-7.032,16.074-21.766,13.73-23.441c-2.344-2.009-40.854-4.019-57.932,10.381c0.67-8.707,10.381-16.074,9.041-21.432
		c-1.339-5.358-41.523,3.014-62.285,17.078c-1.304-2.933,6.907-13.796,9.508-19.005c0.069-0.026,0.133-0.059,0.203-0.083
		c-0.054,0-0.111,0.006-0.166,0.006c0.057-0.115,0.115-0.232,0.166-0.341c2.344-5.023-28.464-9.376-56.593,18.753
		c-1.004-5.358,3.684-15.069,2.679-18.083c-1.57-5.023-20.505-0.039-44.94,13.573c-0.822-1.045-1.995-1.792-3.268-2.631
		c1.876-3.251,4.588-6.23,4.248-8.616c21.845-7.594,58.742-15.369,59.03-21.413c0.335-7.032-8.037-12.055-10.046-17.748
		c39.849,0.67,78.694-20.092,80.033-29.134c1.339-9.042-15.404-6.362-21.096-13.73c44.872-8.372,75.01-23.106,71.662-30.473
		c-1.674-4.018-16.408-11.051-20.762-17.748c59.272,4.019,89.745-31.143,82.043-34.491c0,0,0,0,0,0s0,0,0,0
		c-7.702-3.349-28.798-7.702-30.138-12.39c37.17-4.688,90.414-34.491,86.731-41.859c-3.683-7.367-21.766-6.028-30.808-15.069
		c33.151-0.335,74.674-40.518,75.345-44.872l0,0l0,0c0,0,0,0,0,0c0.67-4.353-27.794-8.372-38.51-13.06
		c35.161-4.688,85.726-51.569,80.368-55.253v0c-5.358-3.683-20.762-6.697-31.813-8.706c11.72-1.005,60.611-52.909,64.964-64.964
		c-0.294-0.078-0.584-0.16-0.873-0.242c0.29-0.251,0.58-0.501,0.873-0.762c-0.679,0.136-1.356,0.278-2.035,0.417
		c-4.197-1.287-8.298-2.899-16.383-3.765c27.794-20.092,43.868-55.588,42.528-61.616c-4.688-0.335-10.716-0.67-16.743,0
		C1592.886,737.184,1667.227,638.733,1671.245,615.627z M1049.06,1418.641c0.267-0.334,0.594-0.614,0.948-0.871
		c1.217,0.54,2.483,1.124,3.793,1.748C1052.264,1419.206,1050.686,1418.911,1049.06,1418.641z" />
		<path
			d="M880.476,1306.416c-3.852,9.249-7.121,18.39-9.609,27.298c0.014-0.043,0.029-0.086,0.043-0.13
		c0.86-1.29,1.982-2.798,3.353-4.514c1.98-4.715,4.017-10.045,6.094-15.842C880.398,1310.958,880.439,1308.687,880.476,1306.416z" />
		<path d="M1012.56,601.227c14.737-0.655,27.871-16.673,37.213-15.185c0.096-0.071,0.198-0.151,0.292-0.219
		c-0.037,0.078-0.087,0.17-0.126,0.25c0.154,0.028,0.309,0.047,0.461,0.085c6.415,1.604,0.915,35.028-11.241,67.563
		c7.187,2.424,14.368,4.922,21.981,5.579c11.261,1.371,22.273-2.078,33.451-2.701c12.134,1.371,24.309,6.358,36.568,2.992
		c8.934-1.371,18.076-5.984,27.177-2.742c16.954,4.197,37.524,14.586,52.109-0.374c68.286,23.568,66.397,11.472,75.214,2.119
		c34.157,6.981,70.019,5.651,103.678-3.407v-3.989c-27.26-9.475-56.888-6.317-84.314-15.085
		c-116.749-34.361-238.182-149.739-270.649-126.704C1035.9,530.036,1033.371,577.748,1012.56,601.227z" />
		<path d="M878.621,1339.622c-0.041,0.319-0.082,0.633-0.123,0.952c4.007,1.61,8.297,3.025,12.748,4.275
		C886.999,1342.884,882.78,1341.124,878.621,1339.622z" />
		<path d="M852.864,1382.542c1.775-1.801,3.669-3.669,5.691-5.61c0.632-6.055,1.327-12.342,2.092-18.891
		C857.62,1365.966,855.068,1374.393,852.864,1382.542z" />
		<path d="M1046.722,766.22c23.395,4.031,46.499,25.057,43.175,50.406c-4.013,16.218-30.141,26.617-65.779,36.685
		c-1.247,2.124-2.532,4.27-3.855,6.434c10.716,0.67,21.766-16.074,28.464-7.702c4.061,5.076,0.98,25.538-9.164,48.551
		c16.266-5.35,32.124-11.822,47.261-20.223c44.168-23.729,84.154-104.759-31.91-159.976c-4.293,13.586-12.091,29.135-25.101,44.616
		C1035.467,765.259,1041.11,765.613,1046.722,766.22z" />
		<path d="M691.087,852.043c6.697-8.372,17.413,8.707,28.464,7.702c-1.308-2.123-2.577-4.228-3.81-6.313
		c-32.913-9.267-58.064-18.975-65.076-33.4c-6.233-23.935,14.835-45.71,36.236-52.484c7.597-1.57,15.29-2.267,23.026-2.628
		c-12.987-15.478-20.767-31.019-25.047-44.595c-25.008,11.975-49.673,27.298-64.923,51.087
		c-17.12,26.013-13.132,62.457,6.233,86.184c16.635,20.426,43.004,33.191,74.093,43.069
		C690.113,877.624,687.022,857.124,691.087,852.043z" />
		<path
			d="M868.988,1464.023c3.174,0.011,6.347,0.023,9.521,0.023c0.208-29.546,0.457-59.132,1.081-88.677
		c2.411,2.328,4.642,4.542,6.719,6.659c-3.07-10.498-6.23-21.16-9.255-30.018C870.973,1401.5,868.922,1436.564,868.988,1464.023z" />
		<path d="M859.529,1319.644c2.702,5.249,5.54,10.256,8.528,14.944h0.735c-2.447-5.735-5.634-12.274-9.371-19.403
		C859.455,1316.672,859.492,1318.158,859.529,1319.644z" />
		<path d="M689.412,586.158c0.232-0.066,0.469-0.112,0.706-0.155c-0.01-0.058-0.026-0.122-0.036-0.18
		c0.041,0.05,0.085,0.109,0.125,0.16c9.331-1.577,22.396,14.267,37.045,15.244c-20.767-23.43-23.329-70.988-21.824-91.685
		c-5.09-2.969-10.637-4.482-17.157-2.498c-55.557,13.111-144.644,94.093-246.793,127.074c-29.379,10.306-61.169,8.103-91.004,16.372
		v3.532c32.953,11.677,69.562,10.929,103.596,4.447c10.619,9.088,0.898,21.824,75.006-1.953c14.71,14.793,35.322,4.779,52.276,0.374
		c9.1-3.366,18.284,1.371,27.26,2.742c12.384,3.449,24.684-1.87,36.942-2.951c11.012,0.623,21.858,3.74,32.911,2.659
		c7.674-0.599,14.885-3.122,22.111-5.609C688.474,621.345,683.011,587.987,689.412,586.158z" />
	</g>
</svg>